<svg xmlns="http://www.w3.org/2000/svg" version="1.1" xmlns:xlink="http://www.w3.org/1999/xlink" xmlns:svgjs="http://svgjs.dev/svgjs" width="128" height="128" viewBox="0 0 128 128"><g transform="matrix(0.5049019607843137,0,0,0.5049019607843137,31.65172757151734,12.333870967741937)"><svg viewBox="0 0 97 155" data-background-color="#000000" preserveAspectRatio="xMidYMid meet" height="204" width="128" xmlns="http://www.w3.org/2000/svg" xmlns:xlink="http://www.w3.org/1999/xlink"><g id="tight-bounds" transform="matrix(1,0,0,1,0.05185185185185048,0.25)"><svg viewBox="0 0 96.8962962962963 154.5" height="154.5" width="96.8962962962963"><g><svg viewBox="0 0 96.8962962962963 154.5" height="154.5" width="96.8962962962963"><g><svg viewBox="0 0 96.8962962962963 154.5" height="154.5" width="96.8962962962963"><g id="textblocktransform"><svg viewBox="0 0 96.8962962962963 154.5" height="154.5" width="96.8962962962963" id="textblock"><g><svg viewBox="0 0 96.8962962962963 154.5" height="154.5" width="96.8962962962963"><g transform="matrix(1,0,0,1,0,0)"><svg width="96.8962962962963" viewBox="1.05 -40.5 25.4 40.5" height="154.5" data-palette-color="url(#c192e5b5-2c35-41a9-abef-dfdce40881c2)"></svg></g></svg></g></svg></g></svg></g></svg></g><defs></defs><mask id="0b69c255-bf24-47ed-9f57-21174331cad9"><g id="SvgjsG2465"><svg viewBox="0 0 96.8962962962963 154.5" height="154.5" width="96.8962962962963"><g><svg viewBox="0 0 96.8962962962963 154.5" height="154.5" width="96.8962962962963"><g><svg viewBox="0 0 96.8962962962963 154.5" height="154.5" width="96.8962962962963"><g id="SvgjsG2464"><svg viewBox="0 0 96.8962962962963 154.5" height="154.5" width="96.8962962962963" id="SvgjsSvg2463"><g><svg viewBox="0 0 96.8962962962963 154.5" height="154.5" width="96.8962962962963"><g transform="matrix(1,0,0,1,0,0)"><svg width="96.8962962962963" viewBox="1.05 -40.5 25.4 40.5" height="154.5" data-palette-color="url(#c192e5b5-2c35-41a9-abef-dfdce40881c2)"><path d="M9.5 0L1.05 0 8.7-40.5 18.9-40.5 26.45 0 18.2 0 16.85-8.55 10.9-8.55 9.5 0ZM13.85-29.7L11.7-13.9 16-13.9 13.85-29.7Z" opacity="1" transform="matrix(1,0,0,1,0,0)" fill="white" class="wordmark-text-0" id="SvgjsPath2462"></path></svg></g></svg></g></svg></g></svg></g></svg></g><defs><mask></mask></defs></svg><rect width="96.8962962962963" height="154.5" fill="black" stroke="none" visibility="hidden"></rect></g></mask><linearGradient x1="0" x2="1" y1="0.5" y2="0.5" id="c192e5b5-2c35-41a9-abef-dfdce40881c2"><stop stop-color="#f00b51" offset="0"></stop><stop stop-color="#730062" offset="1"></stop></linearGradient><rect width="96.8962962962963" height="154.5" fill="url(#c192e5b5-2c35-41a9-abef-dfdce40881c2)" mask="url(#0b69c255-bf24-47ed-9f57-21174331cad9)" data-fill-palette-color="primary"></rect></svg><rect width="96.8962962962963" height="154.5" fill="none" stroke="none" visibility="hidden"></rect></g></svg></g></svg>