<svg xmlns="http://www.w3.org/2000/svg" version="1.1" xmlns:xlink="http://www.w3.org/1999/xlink" xmlns:svgjs="http://svgjs.dev/svgjs" width="200" height="150" viewBox="0 0 2000 1500">
  <rect width="2000" height="1500" fill="#000000"/>
  <g transform="matrix(0.75,0,0,0.75,250.81891580161482,109.64392712550602)">
    <svg viewBox="0 0 289 247" data-background-color="#000000" preserveAspectRatio="xMidYMid meet" height="1709" width="2000" xmlns="http://www.w3.org/2000/svg" xmlns:xlink="http://www.w3.org/1999/xlink">
      <g id="tight-bounds" transform="matrix(1,0,0,1,-0.15777777777779534,-0.09999999999999432)">
        <svg viewBox="0 0 289.3155555555556 247.2" height="247.2" width="289.3155555555556">
          <g>
            <svg viewBox="0 0 289.3155555555556 247.2" height="247.2" width="289.3155555555556">
              <g>
                <svg viewBox="0 0 289.3155555555556 247.2" height="247.2" width="289.3155555555556">
                  <g id="textblocktransform">
                    <svg viewBox="0 0 289.3155555555556 247.2" height="247.2" width="289.3155555555556" id="textblock">
                      <g>
                        <svg viewBox="0 0 289.3155555555556 247.2" height="247.2" width="289.3155555555556">
                          <g transform="matrix(1,0,0,1,0,0)">
                            <svg width="289.3155555555556" viewBox="1.05 -40.5 47.400000000000006 40.5" height="247.2" data-palette-color="url(#c2c98b4d-0475-45ea-850f-f129899b4f3c)"/>
                          </g>
                        </svg>
                      </g>
                    </svg>
                  </g>
                </svg>
              </g>
            </svg>
          </g>
          <defs/>
          <mask id="9ad89d0e-6032-4885-9f52-f2e14d2cc690">
            <g id="SvgjsG1177">
              <svg viewBox="0 0 289.3155555555556 247.2" height="247.2" width="289.3155555555556">
                <g>
                  <svg viewBox="0 0 289.3155555555556 247.2" height="247.2" width="289.3155555555556">
                    <g>
                      <svg viewBox="0 0 289.3155555555556 247.2" height="247.2" width="289.3155555555556">
                        <g id="SvgjsG1176">
                          <svg viewBox="0 0 289.3155555555556 247.2" height="247.2" width="289.3155555555556" id="SvgjsSvg1175">
                            <g>
                              <svg viewBox="0 0 289.3155555555556 247.2" height="247.2" width="289.3155555555556">
                                <g transform="matrix(1,0,0,1,0,0)">
                                  <svg width="289.3155555555556" viewBox="1.05 -40.5 47.400000000000006 40.5" height="247.2" data-palette-color="url(#c2c98b4d-0475-45ea-850f-f129899b4f3c)">
                                    <path d="M9.5 0L1.05 0 8.7-40.5 18.9-40.5 26.45 0 18.2 0 16.85-8.55 10.9-8.55 9.5 0ZM13.85-29.7L11.7-13.9 16-13.9 13.85-29.7ZM48.45 0L30.15 0 30.15-40.5 48.35-40.5 48.35-34.4 39.1-34.4 39.1-24.35 46.15-24.35 46.15-18.15 39.1-18.15 39.1-6.05 48.45-6.05 48.45 0Z" opacity="1" transform="matrix(1,0,0,1,0,0)" fill="white" class="wordmark-text-0" id="SvgjsPath1174"/>
                                  </svg>
                                </g>
                              </svg>
                            </g>
                          </svg>
                        </g>
                      </svg>
                    </g>
                  </svg>
                </g>
                <defs>
                  <mask/>
                </defs>
              </svg>
              <rect width="289.3155555555556" height="247.2" fill="black" stroke="none" visibility="hidden"/>
            </g>
          </mask>
          <linearGradient x1="0" x2="1" y1="0.5" y2="0.5" id="c2c98b4d-0475-45ea-850f-f129899b4f3c">
            <stop stop-color="#f00b51" offset="0"/>
            <stop stop-color="#730062" offset="1"/>
          </linearGradient>
          <rect width="289.3155555555556" height="247.2" fill="url(#c2c98b4d-0475-45ea-850f-f129899b4f3c)" mask="url(#9ad89d0e-6032-4885-9f52-f2e14d2cc690)" data-fill-palette-color="primary"/>
        </svg>
        <rect width="289.3155555555556" height="247.2" fill="none" stroke="none" visibility="hidden"/>
      </g>
    </svg>
  </g>
</svg>
